HIERARCHY
ROOT SimulationBone
{
	OFFSET 0.000000 0.000000 0.000000
	CHANNELS 6 Xposition Yposition Zposition Zrotation Yrotation Xrotation 
	JOINT Hips
	{
		OFFSET 0.000000 0.000000 0.000000
		CHANNELS 6 Xposition Yposition Zposition Zrotation Yrotation Xrotation 
		JOINT LeftUpLeg
		{
			OFFSET 0.103462 1.857831 10.548502
			CHANNELS 3 Zrotation Yrotation Xrotation
			JOINT LeftLeg
			{
				OFFSET 43.500008 -0.000027 -0.000004
				CHANNELS 3 Zrotation Yrotation Xrotation
				JOINT LeftFoot
				{
					OFFSET 42.372200 0.000011 -0.000002
					CHANNELS 3 Zrotation Yrotation Xrotation
					JOINT LeftToe
					{
						OFFSET 17.299999 -0.000001 -0.000002
						CHANNELS 3 Zrotation Yrotation Xrotation
						End Site
						{
							OFFSET 0.000000 0.000000 0.000000
						}
					}
				}
			}
		}
		JOINT RightUpLeg
		{
			OFFSET 0.103458 1.857828 -10.548501
			CHANNELS 3 Zrotation Yrotation Xrotation
			JOINT RightLeg
			{
				OFFSET 43.500038 -0.000031 0.000011
				CHANNELS 3 Zrotation Yrotation Xrotation
				JOINT RightFoot
				{
					OFFSET 42.372257 -0.000004 0.000010
					CHANNELS 3 Zrotation Yrotation Xrotation
					JOINT RightToe
					{
						OFFSET 17.299994 -0.000005 0.000004
						CHANNELS 3 Zrotation Yrotation Xrotation
						End Site
						{
							OFFSET 0.000000 0.000000 0.000000
						}
					}
				}
			}
		}
		JOINT Spine
		{
			OFFSET 6.901966 -2.603733 0.000000
			CHANNELS 3 Zrotation Yrotation Xrotation
			JOINT Spine1
			{
				OFFSET 12.588101 0.000002 0.000000
				CHANNELS 3 Zrotation Yrotation Xrotation
				JOINT Spine2
				{
					OFFSET 12.343201 0.000004 -0.000002
					CHANNELS 3 Zrotation Yrotation Xrotation
					JOINT Neck
					{
						OFFSET 25.832895 -0.000004 0.000002
						CHANNELS 3 Zrotation Yrotation Xrotation
						JOINT Head
						{
							OFFSET 11.766604 0.000011 0.000001
							CHANNELS 3 Zrotation Yrotation Xrotation
							End Site
							{
								OFFSET 0.000000 0.000000 0.000000
							}
						}
					}
					JOINT LeftShoulder
					{
						OFFSET 19.745903 -1.480368 6.000108
						CHANNELS 3 Zrotation Yrotation Xrotation
						JOINT LeftArm
						{
							OFFSET 11.284126 -0.000007 -0.000022
							CHANNELS 3 Zrotation Yrotation Xrotation
							JOINT LeftForeArm
							{
								OFFSET 33.000053 0.000001 0.000028
								CHANNELS 3 Zrotation Yrotation Xrotation
								JOINT LeftHand
								{
									OFFSET 25.200005 0.000019 0.000013
									CHANNELS 3 Zrotation Yrotation Xrotation
									End Site
									{
										OFFSET 0.000000 0.000000 0.000000
									}
								}
							}
						}
					}
					JOINT RightShoulder
					{
						OFFSET 19.746094 -1.480373 -6.000072
						CHANNELS 3 Zrotation Yrotation Xrotation
						JOINT RightArm
						{
							OFFSET 11.284138 -0.000017 -0.000010
							CHANNELS 3 Zrotation Yrotation Xrotation
							JOINT RightForeArm
							{
								OFFSET 33.000092 0.000013 0.000009
								CHANNELS 3 Zrotation Yrotation Xrotation
								JOINT RightHand
								{
									OFFSET 25.199776 0.000139 0.000415
									CHANNELS 3 Zrotation Yrotation Xrotation
									End Site
									{
										OFFSET 0.000000 0.000000 0.000000
									}
								}
							}
						}
					}
				}
			}
		}
	}
}
MOTION
Frames: 11
Frame Time: 0.016667
-14.986256 0.000000 321.306891 180.000000 -79.389301 180.000000 -5.359242 84.451721 0.116072 91.433325 -3.507839 -172.887617 147.325704 10.543002 174.301728 -36.352837 0.997097 -4.222569 70.227314 5.342816 6.816893 21.454551 0.003087 0.000000 170.579808 0.913502 -175.623998 -83.652406 -2.237332 3.387252 73.150232 0.225866 8.028421 21.454555 -0.003107 -0.000020 12.748167 -1.623153 2.889014 15.403381 -3.616839 5.538209 15.086228 -3.583235 5.559888 -8.184183 -17.422657 -9.205475 -30.713550 17.177709 -22.793077 -155.824903 -81.862562 -26.073704 39.536395 32.696886 83.577670 -76.711274 -6.136063 2.156462 19.388390 36.950899 37.578115 157.705320 85.051838 -20.845855 -10.118913 -38.476026 -22.214614 -92.573385 2.402724 -2.629905 -5.447197 6.089889 -25.864324 
-15.174320 0.000000 323.081719 180.000000 -80.612389 180.000000 -3.945451 83.173808 -0.368390 93.881338 -5.007834 -173.883467 148.324580 12.166686 -179.276524 -42.773595 -3.773321 -7.714148 74.091999 7.195751 5.739480 21.454551 0.003086 -0.000001 172.113090 4.020217 -174.872908 -88.504267 -3.106311 3.936613 73.273660 -0.684438 6.454267 21.454570 -0.003111 -0.000014 12.777218 -1.794790 2.238368 15.479026 -3.873178 4.218198 15.161086 -3.847507 4.241499 -8.219917 -17.031995 -8.368471 -31.807910 17.473256 -22.244748 -157.562263 -80.538941 -24.338796 37.690334 32.773251 81.533738 -74.927387 -6.555233 2.110686 19.891028 35.456185 40.024407 152.623488 84.528661 -25.987973 -9.957316 -39.759830 -22.367979 -90.936516 3.097794 -2.620534 -5.619672 5.948902 -27.456067 
-15.409445 0.000000 324.889058 180.000000 -81.775982 180.000000 -2.739179 82.575661 -0.591758 95.807572 -5.592708 -175.563269 150.151176 12.045112 -178.955177 -46.815570 -5.058881 -7.968921 77.745085 7.201944 5.593018 21.454551 0.003091 -0.000001 172.339101 5.117009 -175.997309 -92.275629 -3.671364 4.559991 73.438739 -1.482662 5.270318 21.454568 -0.003114 -0.000013 12.742621 -1.866667 2.010362 15.416107 -3.984694 3.755634 15.097923 -3.961815 3.779634 -9.207553 -16.627354 -7.907372 -32.078194 17.821058 -22.053429 -161.387792 -79.322601 -20.472389 33.797763 33.890219 78.575759 -73.026196 -7.325188 2.084969 20.376997 31.427762 43.427073 158.505997 83.486437 -20.114658 -9.452260 -40.648934 -23.133804 -88.744258 4.407564 -2.599042 -5.816938 7.150755 -29.093637 
-15.688375 0.000000 326.726203 180.000000 -82.878974 180.000000 -1.761497 82.468975 -0.694992 97.247228 -5.611513 -177.692325 152.460019 11.129741 178.055912 -49.038284 -4.226703 -6.783485 80.987186 6.228428 5.827976 21.454550 0.003097 -0.000001 171.460889 5.050369 -178.336196 -95.146798 -4.020458 5.117453 73.681967 -2.121573 4.413763 21.454558 -0.003116 -0.000015 12.650891 -1.878105 2.038388 15.231218 -4.008324 3.813409 14.913046 -3.985107 3.837549 -10.634235 -16.377416 -7.651515 -31.888857 18.123696 -22.041779 -165.599678 -78.175725 -16.196887 28.538688 35.682840 75.022803 -70.842383 -8.406330 2.071950 20.644343 25.630498 49.021045 165.891214 82.227273 -12.711754 -8.821537 -41.453617 -24.469941 -85.855259 6.209849 -2.585392 -6.141935 9.368310 -30.343580 
-16.007854 0.000000 328.590450 180.000000 -83.920640 180.000000 -1.022407 82.665443 -0.818639 98.259851 -5.427433 179.926943 155.007277 10.257007 174.604306 -49.824631 -2.954081 -5.569702 83.611418 5.202811 6.025053 21.454550 0.003098 0.000000 169.730761 4.617100 178.837794 -97.297198 -4.248087 5.491531 74.042385 -2.553198 3.822046 21.454551 -0.003118 -0.000016 12.509851 -1.867984 2.155692 14.944905 -3.998917 4.053785 14.626838 -3.974255 4.077853 -11.990307 -16.455913 -7.414841 -31.603861 18.290417 -22.036598 -169.142203 -77.116997 -12.588688 22.630116 37.885884 71.232622 -68.208030 -9.759703 2.057136 20.201104 18.703127 58.157851 170.505126 81.234663 -8.077521 -8.273736 -42.489008 -26.339698 -82.120231 8.389992 -2.584474 -6.638161 12.279306 -30.772706 
-16.364624 0.000000 330.479094 180.000000 -84.900602 180.000000 -0.507519 83.020887 -1.056485 98.955101 -5.327527 177.538806 157.545584 9.920456 172.994121 -49.555957 -2.591624 -5.295539 85.470705 4.857849 5.940595 21.454550 0.003093 0.000000 167.406278 4.444200 176.193076 -98.810398 -4.424374 5.635535 74.479793 -2.769304 3.429800 21.454553 -0.003119 -0.000014 12.332446 -1.861725 2.212627 14.587910 -3.987738 4.174688 14.269903 -3.962337 4.198676 -12.898689 -16.912172 -7.050613 -31.464991 18.269296 -21.890390 -171.581968 -76.189658 -10.095913 16.739762 40.332565 67.467703 -64.996182 -11.368185 2.030645 18.279825 11.575272 71.377666 171.471641 80.943216 -7.107248 -7.921900 -43.946669 -28.619959 -77.496717 10.755822 -2.568000 -7.170828 15.458554 -30.048269 
-16.755430 0.000000 332.389430 180.000000 -85.818789 180.000000 -0.141163 83.567642 -1.316140 99.510568 -5.280280 175.657145 160.274555 10.087300 173.225386 -48.301184 -2.880819 -5.668987 86.564799 5.001621 5.641360 21.454551 0.003087 0.000000 164.977646 4.448803 174.232484 -99.392031 -4.517876 5.736962 74.629412 -2.923014 3.156920 21.454557 -0.003119 -0.000012 12.151561 -1.829977 2.127656 14.229791 -3.907902 4.015764 13.911753 -3.883452 4.039274 -13.497250 -17.310315 -6.610599 -31.225831 18.164195 -21.543989 -173.594065 -75.331887 -8.034014 11.093646 42.699435 63.319459 -61.251968 -13.306390 2.030013 14.944633 6.332037 84.800581 170.591938 80.945043 -7.998471 -7.621736 -45.485203 -30.755777 -72.411868 12.772446 -2.472801 -7.157686 18.008385 -28.248128 
-17.177014 0.000000 334.318753 180.000000 -86.675402 180.000000 0.145268 84.347045 -1.485649 100.049254 -5.179298 174.704868 163.433305 10.595025 174.693535 -46.100345 -3.220632 -6.171169 86.962009 5.252994 5.234569 21.454553 0.003088 -0.000000 162.893025 4.465052 173.293185 -98.761050 -4.485375 5.978514 74.235648 -3.153692 2.967305 21.454552 -0.003118 -0.000013 11.988985 -1.738937 1.867699 13.915562 -3.690034 3.513937 13.597416 -3.668621 3.536154 -13.943141 -17.218853 -6.206506 -30.650388 18.070927 -20.992309 -175.668406 -74.494598 -5.903130 5.888726 44.680886 58.271941 -57.250907 -15.535202 2.059525 11.649572 4.170819 94.146054 169.870398 80.749910 -8.735825 -7.240771 -46.722834 -32.257066 -67.367508 13.969798 -2.337059 -6.144342 19.060419 -25.549885 
-17.626121 0.000000 336.264358 180.000000 -87.470873 180.000000 0.361138 85.259933 -1.578393 100.467546 -4.969641 174.450784 166.796621 11.100205 176.628419 -43.294748 -3.301735 -6.571843 86.888686 5.445061 4.820922 21.454555 0.003088 0.000000 161.091596 4.468596 173.138616 -97.064295 -4.362431 6.294568 73.795774 -3.374355 3.013937 21.454548 -0.003117 -0.000015 11.802834 -1.590898 1.526046 13.556700 -3.349760 2.855947 13.238461 -3.332333 2.876133 -13.995665 -16.708803 -5.949619 -30.034161 17.911483 -20.359568 -177.425816 -73.887411 -4.094963 1.319165 46.430857 51.650873 -54.064993 -17.423099 2.048715 8.950393 3.880200 98.359743 171.143325 80.484599 -7.453782 -6.657346 -47.662353 -33.523035 -62.617712 14.487004 -2.195690 -4.413897 18.502665 -22.232913 
-18.099494 0.000000 338.223540 180.000000 -88.205831 180.000000 0.508540 86.189231 -1.629916 100.640312 -4.618336 174.554998 170.051966 11.329396 178.372211 -40.252826 -3.009053 -6.737982 86.577796 5.499684 4.485384 21.454554 0.003082 0.000001 159.417110 4.440607 173.432281 -94.525611 -4.180583 6.569421 73.808060 -3.473151 3.402899 21.454549 -0.003115 -0.000017 11.549080 -1.397429 1.202461 13.060869 -2.921741 2.239896 12.742604 -2.908038 2.257507 -13.480153 -15.952820 -5.896304 -29.640949 17.601136 -19.753124 -178.564958 -73.730730 -2.924799 -2.689138 48.074004 43.071802 -52.738379 -18.315926 2.038891 6.771467 3.964095 97.382673 175.333792 80.294076 -3.208637 -5.683964 -48.327399 -35.100892 -58.368757 14.587611 -2.043670 -2.492780 16.570860 -18.793489 
-18.593875 0.000000 340.193595 180.000000 -88.881070 180.000000 0.608563 87.086731 -1.637401 100.573446 -4.129558 174.903128 173.110311 11.176501 -179.985839 -37.139740 -2.646522 -6.730961 86.122367 5.468485 4.238535 21.454553 0.003078 0.000002 157.843664 4.374898 174.011596 -91.248417 -3.882104 6.733076 74.026655 -3.477950 3.884487 21.454553 -0.003114 -0.000018 11.237569 -1.171363 0.896907 12.447377 -2.432463 1.662753 12.129128 -2.422246 1.677415 -12.848125 -15.022660 -5.935307 -29.070640 17.165406 -19.082183 -179.289501 -73.964599 -2.185732 -6.579733 49.246240 34.146645 -53.245596 -18.092411 2.065481 5.686585 3.167280 92.523668 -179.630137 79.921390 1.895622 -4.048300 -48.465826 -37.097246 -54.906633 14.450414 -1.909098 -0.943324 14.077564 -16.254954 
